<?xml version="1.0" encoding="UTF-8" standalone="no"?><svg width="267" height="267" viewBox="0 0 267 267" fill="none" xmlns="http://www.w3.org/2000/svg"><g clip-path="url(#clip0)"><path d="M171.102 174.43H94.067c-18.57 0-33.624-15.055-33.624-33.623V72.142C60.443 32.3 92.74 0 132.583 0c39.845 0 72.143 32.3 72.143 72.142v68.665c0 18.568-15.054 33.624-33.624 33.624z" fill="#333"/><path d="M132.584 0c-2.68 0-5.325.152-7.93.437 36.11 3.947 64.215 34.543 64.215 71.704v68.665c0 18.57-15.057 33.626-33.626 33.626H171.1c18.572 0 33.625-15.055 33.625-33.625V72.14c0-39.84-32.297-72.14-72.14-72.14z" fill="#333"/><path d="M230.805 261.38v-50.157a31.713 31.713 0 0 0-21.602-30.057L197.6 177.26l-4.966 6.26-5.303-9.717-24.025-8.083a10.564 10.564 0 0 1-7.2-10.018v-17.215h-47.043v17.215c0 4.54-2.896 8.573-7.2 10.018l-45.897 15.443a31.72 31.72 0 0 0-21.602 30.06v50.157a5.29 5.29 0 0 0 5.287 5.287h185.867a5.288 5.288 0 0 0 5.288-5.287z" fill="#B3E59F"/><path d="M209.203 181.165L197.6 177.26l-4.966 6.26-5.303-9.716-24.026-8.084a10.567 10.567 0 0 1-7.198-10.02v-17.213h-47.043v7.928h31.184v17.217c0 4.537 2.9 8.57 7.2 10.017l45.897 15.442a31.716 31.716 0 0 1 21.603 30.06v47.515h10.57a5.285 5.285 0 0 0 5.285-5.287v-50.157a31.707 31.707 0 0 0-21.6-30.058z" fill="#95D6A4"/><path d="M101.508 165.84l30.11 30.113a2.117 2.117 0 0 0 2.99 0l29.845-29.845-1.148-.385a10.573 10.573 0 0 1-7.2-10.02v-17.216h-47.043v17.216c0 4.538-2.897 8.572-7.198 10.02l-.356.118z" fill="#E2A770"/><path d="M163.305 165.723a10.572 10.572 0 0 1-7.2-10.022v-17.213h-15.858V155.7c-.03 3.187 1.535 6.276 4.004 8.295 1.915 1.565 1.984 4.473.237 6.22l-19.302 19.304 6.433 6.433a2.118 2.118 0 0 0 2.99 0l29.845-29.845-1.148-.385z" fill="#D5985C"/><path d="M189.07 216.945c.607.34 1.267.5 1.918.5a3.97 3.97 0 0 0 3.473-2.04c2.593-4.677 5.716-12.272 5.852-21.908a46.1 46.1 0 0 0-2.714-16.238l-10.268-3.453c2.447 4.31 5.17 11.05 5.05 19.582-.11 7.985-2.7 14.287-4.854 18.17a3.96 3.96 0 0 0 1.544 5.385z" fill="#DFDCE0"/><path d="M197.6 177.26l-10.27-3.457c1.978 3.485 4.137 8.56 4.83 14.89l1.186.4a31.81 31.81 0 0 1 6.952 3.327 46.247 46.247 0 0 0-2.7-15.16z" fill="#C7C2C9"/><path d="M66.54 212.014a3.965 3.965 0 0 0 3.658 2.434 3.9 3.9 0 0 0 1.528-.31 3.96 3.96 0 0 0 2.126-5.186 40.38 40.38 0 0 1-3.122-13.882c-.375-8.672 2.156-15.762 4.508-20.39l-9.967 3.353c-1.6 4.815-2.75 10.7-2.46 17.38a48.208 48.208 0 0 0 3.73 16.6z" fill="#DFDCE0"/><path d="M209.703 227.553c0 9.426-7.64 17.068-17.07 17.068-9.426 0-17.07-7.64-17.07-17.067 0-9.426 7.644-17.072 17.07-17.072 9.43 0 17.07 7.647 17.07 17.073zM81.654 248.587H77.21a3.965 3.965 0 0 1 0-7.93h3.752v-15.442c0-5.938-4.828-10.766-10.767-10.766-5.935 0-10.767 4.827-10.767 10.765v15.443h3.752a3.964 3.964 0 1 1 0 7.93h-4.44c-3.993 0-7.238-3.25-7.238-7.242v-16.13c0-10.31 8.385-18.698 18.693-18.698 10.312 0 18.696 8.388 18.696 18.697v16.13c0 3.994-3.246 7.242-7.236 7.242z" fill="#F1EFF1"/><path d="M136.547 215.13a3.962 3.962 0 1 1-7.925 0 3.964 3.964 0 0 1 3.962-3.965 3.965 3.965 0 0 1 3.963 3.966zM136.547 238.915a3.964 3.964 0 0 1-3.963 3.967 3.964 3.964 0 0 1-3.962-3.967 3.96 3.96 0 0 1 3.962-3.962 3.96 3.96 0 0 1 3.963 3.962zM136.547 262.7a3.963 3.963 0 1 1-7.925 0 3.962 3.962 0 1 1 7.925 0z" fill="#95D6A4"/><path d="M192.954 97.585h-4.17V74.043h4.17c6.5 0 11.77 5.268 11.77 11.77s-5.27 11.772-11.77 11.772z" fill="#D5985C"/><path d="M188.785 74.042c0 5.23-6.46 11.77-6.46 11.77s6.457 11.476 6.452 11.773c-.343 22.033-13.365 40.99-32.09 49.892-2.294 1.088-7.898-.752-7.898-.752s-5.34 5.21-8.542 5.65c-2.57.35-5.196.525-7.864.517-31.062-.108-56.004-25.748-56.004-56.812V74.04c9-.687 22.217-2.846 36.57-9.692a101.924 101.924 0 0 0 18.018-11.02c.973-.746 2.3-.808 3.338-.154a148.19 148.19 0 0 0 22.395 11.62 148.48 148.48 0 0 0 32.085 9.248z" fill="#E2A770"/><path d="M172.93 70.448V88.76c0 31.107-25.27 56.31-56.402 56.205a55.42 55.42 0 0 1-16.393-2.53c9.104 6.54 20.217 10.416 32.25 10.457 31.13.108 56.4-25.096 56.4-56.2V74.04a148.908 148.908 0 0 1-15.855-3.594z" fill="#D5985C"/><path d="M158.22 98.237a3.963 3.963 0 0 1-3.965-3.964v-9.07a3.963 3.963 0 1 1 7.928 0v9.07a3.964 3.964 0 0 1-3.964 3.964zM106.95 98.237a3.963 3.963 0 0 1-3.964-3.964v-9.07a3.963 3.963 0 1 1 7.927 0v9.07a3.962 3.962 0 0 1-3.964 3.964z" fill="#333"/><path d="M132.586 128.64c-4.858 0-8.464-2.027-10.218-3.268a3.97 3.97 0 0 1-.944-5.53 3.967 3.967 0 0 1 5.528-.94c1.013.715 3.14 1.902 5.978 1.803 2.52-.092 4.39-1.168 5.282-1.8a3.966 3.966 0 0 1 4.594 6.463 17.628 17.628 0 0 1-10.22 3.272zM72.213 97.585h4.17V74.043h-4.17c-6.5 0-11.77 5.268-11.77 11.77s5.27 11.772 11.77 11.772z" fill="#D5985C"/></g><defs><clipPath id="clip0"><path fill="#fff" d="M0 0h266.667v266.667H0z"/></clipPath></defs></svg>